<?xml version="1.0" standalone="no"?><!DOCTYPE svg PUBLIC "-//W3C//DTD SVG 1.1//EN" "http://www.w3.org/Graphics/SVG/1.1/DTD/svg11.dtd"><svg t="1581686950226" class="icon" viewBox="0 0 1024 1024" version="1.1" xmlns="http://www.w3.org/2000/svg" p-id="1136" width="32" height="32" xmlns:xlink="http://www.w3.org/1999/xlink"><defs><style type="text/css"></style></defs><path d="M372.136585 64.437073h-307.699512v307.699512c0 61.739707 50.051122 111.890732 111.890732 111.890732h307.699512v-307.699512c0-61.83961-50.051122-111.890732-111.890732-111.890732z m41.959025 265.740488v83.918049h-223.781464c-30.869854 0-55.945366-25.075512-55.945366-55.945366 0-4.89522 0.79922-9.490732 1.998049-13.986342h-1.998049V134.468683h223.781464c30.869854 0 55.945366 25.075512 55.945366 55.945366v139.763512zM64.437073 651.863415v307.699512h307.699512c61.739707 0 111.890732-50.051122 111.890732-111.890732v-307.699512h-307.699512c-61.83961 0-111.890732 50.051122-111.890732 111.890732z m349.658537-42.058927v223.881366c0 30.869854-25.075512 55.945366-55.945366 55.945366h-223.781464V679.736195h1.998049c-1.198829-4.49561-1.998049-9.091122-1.998049-13.986341 0-30.869854 25.075512-55.945366 55.945366-55.945366h223.781464zM763.754146 372.136585h35.964878c26.474146 0 47.953171-23.377171 47.953171-52.248975v-66.73483c0-3.896195-3.096976-6.993171-6.993171-6.99317h-13.986341c-3.896195 0-6.993171 3.096976-6.993171 6.99317v62.938537c0 20.979512-9.990244 27.972683-27.972683 27.972683h-27.972683c-7.692488 0-13.986341 6.293854-13.986341 13.986341-0.099902 7.892293 6.193951 14.086244 13.986341 14.086244z" p-id="1137" fill="currentColor"></path><path d="M651.863415 64.437073c-61.83961 0-111.890732 50.051122-111.890732 111.890732v307.699512h307.699512c61.83961 0 111.890732-50.151024 111.890732-111.890732v-307.699512h-307.699512z m237.867707 279.826732h-2.097951c1.198829 4.49561 1.998049 9.091122 1.998049 13.986341 0 30.869854-25.075512 55.945366-55.945366 55.945366h-223.781464v-83.918049-139.863414c0-30.869854 25.075512-55.945366 55.945366-55.945366h223.881366v209.795122zM847.672195 539.972683h-307.699512v307.699512c0 61.739707 50.051122 111.890732 111.890732 111.890732h307.699512v-307.699512c0-61.83961-50.051122-111.890732-111.890732-111.890732z m41.959025 139.863415v209.795122H665.749854c-30.869854 0-55.945366-25.075512-55.945366-55.945366v-223.781464h223.781463c30.869854 0 55.945366 25.075512 55.945366 55.945366 0 4.89522-0.79922 9.490732-1.998049 13.986342h2.097952z" p-id="1138" fill="currentColor"></path><path d="M707.80878 372.136585c7.692488 0 13.986341-6.293854 13.986342-13.986341s-6.293854-13.986341-13.986342-13.986342-13.986341 6.293854-13.986341 13.986342c0 7.79239 6.293854 13.986341 13.986341 13.986341z" p-id="1139" fill="currentColor"></path></svg>
