<?xml version="1.0" standalone="no"?><!DOCTYPE svg PUBLIC "-//W3C//DTD SVG 1.1//EN" "http://www.w3.org/Graphics/SVG/1.1/DTD/svg11.dtd"><svg t="1581488798730" class="icon" viewBox="0 0 1024 1024" version="1.1" xmlns="http://www.w3.org/2000/svg" p-id="4822" xmlns:xlink="http://www.w3.org/1999/xlink" width="32" height="32"><defs><style type="text/css"></style></defs><path d="M31.29344 880.64v7.33184c0 5.69344 4.62848 10.32192 10.32192 10.32192h940.81024a10.32192 10.32192 0 0 0 10.32192-10.32192V880.64a10.32192 10.32192 0 0 0-10.32192-10.32192H41.61536a10.32192 10.32192 0 0 0-10.32192 10.32192z" fill="currentColor" p-id="4823"></path><path d="M41.61536 898.2528h7.33184a10.32192 10.32192 0 0 0 10.32192-10.32192V136.06912a10.32192 10.32192 0 0 0-10.32192-10.32192h-7.33184a10.32192 10.32192 0 0 0-10.32192 10.32192v751.86176c0 5.69344 4.62848 10.32192 10.32192 10.32192z" fill="currentColor" p-id="4824"></path><path d="M95.92832 755.42528a16.384 16.384 0 0 1-7.08608-31.17056l282.66496-134.92224 238.96064-406.89664a16.42496 16.42496 0 0 1 25.96864-2.99008l261.07904 274.14528a16.384 16.384 0 0 1-23.71584 22.56896l-246.08768-258.41664-230.48192 392.47872a16.30208 16.30208 0 0 1-7.04512 6.47168l-287.21152 137.09312a15.68768 15.68768 0 0 1-7.04512 1.6384z" fill="currentColor" p-id="4825"></path><path d="M890.88 725.48352a16.1792 16.1792 0 0 1-11.14112-4.38272l-240.80384-223.8464-326.94272 43.78624a16.09728 16.09728 0 0 1-15.9744-7.41376L82.08384 199.63904a16.384 16.384 0 0 1 27.60704-17.69472l208.24064 325.2224 324.28032-43.4176a16.09728 16.09728 0 0 1 13.35296 4.25984l246.49728 229.13024a16.384 16.384 0 0 1-11.18208 28.34432z" fill="currentColor" p-id="4826"></path><path d="M392.92928 811.25376a16.34304 16.34304 0 0 1-13.27104-6.79936L84.7872 396.20608a16.42496 16.42496 0 0 1 26.58304-19.21024l289.30048 400.54784 246.04672-26.37824 277.504-251.98592a16.384 16.384 0 0 1 22.03648 24.24832L664.7808 779.0592a16.71168 16.71168 0 0 1-9.29792 4.17792l-260.83328 27.97568-1.72032 0.04096z" fill="currentColor" p-id="4827"></path><path d="M624.59904 190.79168m-19.78368 0a19.78368 19.78368 0 1 0 39.56736 0 19.78368 19.78368 0 1 0-39.56736 0Z" fill="currentColor" p-id="4828"></path><path d="M624.59904 214.67136a23.92064 23.92064 0 1 1 0.04096-47.80032 23.92064 23.92064 0 0 1-0.04096 47.80032z m0-39.60832a15.72864 15.72864 0 1 0 0.08192 31.45728 15.72864 15.72864 0 0 0-0.08192-31.45728z" fill="currentColor" p-id="4829"></path><path d="M392.92928 794.86976m-19.78368 0a19.78368 19.78368 0 1 0 39.56736 0 19.78368 19.78368 0 1 0-39.56736 0Z" fill="currentColor" p-id="4830"></path><path d="M392.92928 818.74944a23.92064 23.92064 0 1 1 0.04096-47.80032 23.92064 23.92064 0 0 1-0.04096 47.80032z m0-39.60832a15.72864 15.72864 0 1 0 0.08192 31.45728 15.72864 15.72864 0 0 0-0.08192-31.45728z" fill="currentColor" p-id="4831"></path></svg>
