<?xml version="1.0" standalone="no"?><!DOCTYPE svg PUBLIC "-//W3C//DTD SVG 1.1//EN" "http://www.w3.org/Graphics/SVG/1.1/DTD/svg11.dtd"><svg t="1581351678767" class="icon" viewBox="0 0 1024 1024" version="1.1" xmlns="http://www.w3.org/2000/svg" p-id="1425" width="64" height="64" xmlns:xlink="http://www.w3.org/1999/xlink"><defs><style type="text/css"></style></defs><path d="M256 170.666667a85.333333 85.333333 0 1 1-85.333333 85.333333 85.333333 85.333333 0 0 1 85.333333-85.333333m0-42.666667a128 128 0 1 0 128 128 128 128 0 0 0-128-128zM768 170.666667a85.333333 85.333333 0 1 1-85.333333 85.333333 85.333333 85.333333 0 0 1 85.333333-85.333333m0-42.666667a128 128 0 1 0 128 128 128 128 0 0 0-128-128zM256 682.666667a85.333333 85.333333 0 1 1-85.333333 85.333333 85.333333 85.333333 0 0 1 85.333333-85.333333m0-42.666667a128 128 0 1 0 128 128 128 128 0 0 0-128-128zM768 682.666667a85.333333 85.333333 0 1 1-85.333333 85.333333 85.333333 85.333333 0 0 1 85.333333-85.333333m0-42.666667a128 128 0 1 0 128 128 128 128 0 0 0-128-128z" p-id="1426" fill="#2c2c2c"></path><path d="M512 362.666667a231.68 231.68 0 0 1-164.693333-70.613334l30.72-29.44a185.173333 185.173333 0 0 0 267.946666 0l30.72 29.44A231.68 231.68 0 0 1 512 362.666667zM645.973333 761.386667a185.173333 185.173333 0 0 0-267.946666 0l-30.72-29.44a227.413333 227.413333 0 0 1 329.386666 0zM731.946667 676.693333a227.413333 227.413333 0 0 1 0-329.386666l29.44 30.72a185.173333 185.173333 0 0 0 0 267.946666zM292.053333 676.693333l-29.44-30.72a185.173333 185.173333 0 0 0 0-267.946666l29.44-30.72a227.413333 227.413333 0 0 1 0 329.386666z" p-id="1427" fill="#2c2c2c"></path></svg>
