<?xml version="1.0" standalone="no"?><!DOCTYPE svg PUBLIC "-//W3C//DTD SVG 1.1//EN" "http://www.w3.org/Graphics/SVG/1.1/DTD/svg11.dtd"><svg t="1582006719064" class="icon" viewBox="0 0 1024 1024" version="1.1" xmlns="http://www.w3.org/2000/svg" p-id="1113" width="32" height="32" xmlns:xlink="http://www.w3.org/1999/xlink"><defs><style type="text/css"></style></defs><path d="M192 832h160a32 32 0 0 1 0 64H160a32 32 0 0 1-32-32v-192a32 32 0 0 1 64 0z" p-id="1114" fill="#ffffff"></path><path d="M182.72 886.72a32 32 0 0 1-45.44-45.44l224-224a32 32 0 0 1 45.44 45.44zM832 832v-160a32 32 0 0 1 64 0v192a32 32 0 0 1-32 32h-192a32 32 0 0 1 0-64z" p-id="1115" fill="#ffffff"></path><path d="M886.72 841.28a32 32 0 0 1-45.44 45.44l-224-224a32 32 0 0 1 45.44-45.44zM192 192v160a32 32 0 0 1-64 0V160a32 32 0 0 1 32-32h192a32 32 0 0 1 0 64z" p-id="1116" fill="#ffffff"></path><path d="M137.28 182.72a32 32 0 0 1 45.44-45.44l224 224a32 32 0 0 1-45.44 45.44zM832 192h-160a32 32 0 0 1 0-64h192a32 32 0 0 1 32 32v192a32 32 0 0 1-64 0z" p-id="1117" fill="#ffffff"></path><path d="M841.28 137.28a32 32 0 1 1 45.44 45.44l-224 224a32 32 0 0 1-45.44-45.44z" p-id="1118" fill="#ffffff"></path></svg>