<?xml version="1.0" standalone="no"?><!DOCTYPE svg PUBLIC "-//W3C//DTD SVG 1.1//EN" "http://www.w3.org/Graphics/SVG/1.1/DTD/svg11.dtd"><svg t="1591246780726" class="icon" viewBox="0 0 1024 1024" version="1.1" xmlns="http://www.w3.org/2000/svg" p-id="5150" xmlns:xlink="http://www.w3.org/1999/xlink" width="32" height="32"><defs><style type="text/css"></style></defs><path d="M807.875 234.125c68.68125 0 96.58125 25.5375 96.58125 87.975v585.50625H299.0375V234.125h508.8375m0-54.39375H294.93125c-27.73125 0-50.23125 21.43125-50.23125 47.53125v687.2625c0 26.04375 22.6125 47.475 50.23125 47.475h613.4625c27.675 0 50.23125-21.43125 50.23125-47.53125V322.1c0.05625-82.2375-42.01875-142.36875-150.75-142.36875z m0 0" p-id="5151" fill="currentColor"></path><path d="M907.38125 370.30625a16.93125 16.93125 0 0 1-11.08125-3.9375c-43.59375-34.36875-91.63125-30.99375-91.96875-30.99375a18.1125 18.1125 0 0 1-14.2875-5.23125 18 18 0 0 1-5.4-14.00625c3.43125-53.6625-50.23125-79.5375-50.7375-79.7625a18.16875 18.16875 0 0 1-8.6625-24.13125c4.3875-9 15.1875-12.9375 24.1875-8.60625 2.86875 1.2375 64.40625 31.1625 71.1 95.90625 22.5 1.8 61.425 9.39375 98.325 38.3625a18 18 0 0 1 2.98125 25.36875 18.1125 18.1125 0 0 1-14.45625 7.03125z m-120.9375 44.49375H424.30625a18 18 0 1 1 0-36h362.1375a18 18 0 1 1 0 36z m0 190.8H424.30625a18 18 0 1 1 0-35.94375h362.1375a18 18 0 1 1 0 35.94375z m0 189H424.30625a18 18 0 1 1 0-36h362.1375a18 18 0 1 1 0 36z m0 0" p-id="5152" fill="currentColor"></path><path d="M244.7 862.4375H134.28125C94.34375 862.4375 62 829.86875 62 789.875V134.3375C62 94.56875 94.34375 62 134.28125 62H596.375c84.0375 0 140.0625 39.6 157.33125 111.375a27.05625 27.05625 0 0 1-19.96875 32.79375 27.16875 27.16875 0 0 1-32.7375-19.96875c-11.30625-46.96875-45.50625-69.80625-104.34375-69.80625h-462.375a18.28125 18.28125 0 0 0-18.1125 18.16875v655.5375c0 9.9 8.2125 18.16875 18.1125 18.16875h110.41875a27.16875 27.16875 0 0 1 0 54.16875z m0 0" p-id="5153" fill="currentColor"></path></svg>
