<?xml version="1.0" standalone="no"?><!DOCTYPE svg PUBLIC "-//W3C//DTD SVG 1.1//EN" "http://www.w3.org/Graphics/SVG/1.1/DTD/svg11.dtd"><svg t="1581687345864" class="icon" viewBox="0 0 1024 1024" version="1.1" xmlns="http://www.w3.org/2000/svg" p-id="2996" xmlns:xlink="http://www.w3.org/1999/xlink" width="32" height="32"><defs><style type="text/css"></style></defs><path d="M810.666667 277.333333h-64c-117.333333 0-213.333333 96-213.333334 213.333334s96 213.333333 213.333334 213.333333h64c117.333333 0 213.333333-96 213.333333-213.333333s-96-213.333333-213.333333-213.333334z m0 341.333334h-64c-70.4 0-128-57.6-128-128s57.6-128 128-128h64c70.4 0 128 57.6 128 128s-57.6 128-128 128zM277.333333 277.333333h-64C96 277.333333 0 373.333333 0 490.666667s96 213.333333 213.333333 213.333333h64c117.333333 0 213.333333-96 213.333334-213.333333s-96-213.333333-213.333334-213.333334z m0 341.333334h-64c-70.4 0-128-57.6-128-128s57.6-128 128-128h64c70.4 0 128 57.6 128 128s-57.6 128-128 128z" fill="currentColor" p-id="2997"></path><path d="M704 448H320c-23.466667 0-42.666667 19.2-42.666667 42.666667s19.2 42.666667 42.666667 42.666666h384c23.466667 0 42.666667-19.2 42.666667-42.666666s-19.2-42.666667-42.666667-42.666667z" fill="currentColor" p-id="2998"></path></svg>
