<?xml version="1.0" standalone="no"?><!DOCTYPE svg PUBLIC "-//W3C//DTD SVG 1.1//EN" "http://www.w3.org/Graphics/SVG/1.1/DTD/svg11.dtd"><svg t="1591246860715" class="icon" viewBox="0 0 1024 1024" version="1.1" xmlns="http://www.w3.org/2000/svg" p-id="7375" xmlns:xlink="http://www.w3.org/1999/xlink" width="32" height="32"><defs><style type="text/css"></style></defs><path d="M571.306667 754.517333l264.064-158.976s2.688 0 2.688-2.688l2.688-2.688V140.117333s0-2.688-2.688-2.688h-8.064l-401.493334-102.4H409.6L169.770667 202.112s-2.688 0-2.688 2.688v2.688s0 2.688-2.688 2.688v2.688c-2.730667 2.730667-2.730667 2.730667-2.730667 5.418667v433.834666l2.730667 2.688s2.688 0 2.688 2.730667h5.376l382.677333 96.981333h5.376c2.688 0 5.376 0 5.376-2.688 2.688 2.688 2.688 2.688 5.376 2.688-2.688 0 0 0 0 0zM425.728 113.194667c10.794667 0 18.858667-8.106667 18.858667-18.858667v-16.213333l334.165333 83.541333-223.658667 153.6-113.194666-34.986667c-2.688-8.106667-8.106667-16.213333-18.858667-16.213333a20.565333 20.565333 0 0 0-13.482667 5.418667L220.970667 212.864l183.253333-123.946667v5.418667c2.688 10.752 10.752 18.858667 21.546667 18.858667z m172.458667 371.84l-18.858667-5.376V344.917333l226.346667-156.288v363.776l-13.482667-5.376c-10.752-2.688-21.546667 2.688-24.234667 13.482667-2.688 10.752 2.688 18.858667 10.794667 24.234667l-199.424 121.258666V520.106667l8.106667 2.730666h5.376c8.106667 0 16.170667-5.418667 18.858666-13.482666 2.688-10.794667-2.688-21.546667-13.482666-24.277334z m-371.882667 118.613333c-5.376-8.106667-18.858667-10.794667-26.922667-2.730667H196.693333V245.205333l207.488 64.682667v37.717333c0 10.794667 8.106667 18.858667 18.858667 18.858667s18.858667-8.064 18.858667-18.858667v-26.922666l97.024 29.653333v118.528l-8.106667-2.688c-10.794667-2.688-21.546667 2.688-24.234667 13.482667-2.688 10.794667 2.688 21.546667 13.44 24.277333l18.901334 5.376v204.8l-320.682667-80.853333h2.688a21.930667 21.930667 0 0 0 5.376-29.653334z" p-id="7376" fill="currentColor"></path><path d="M406.912 220.970667c0 10.794667 8.106667 18.858667 18.858667 18.858666 10.794667 0 18.858667-8.106667 18.858666-18.858666V156.288a18.432 18.432 0 0 0-18.858666-18.858667 18.432 18.432 0 0 0-18.858667 18.858667V221.013333z m-134.741333 366.506666c5.376 0 8.106667 0 10.794666-2.730666l59.306667-48.512c8.064-5.376 10.752-18.858667 2.645333-26.922667-5.376-8.106667-18.858667-10.794667-26.922666-2.688l-59.306667 48.512c-8.106667 5.376-10.752 18.858667-2.688 26.922667 5.376 2.688 10.794667 5.376 16.170667 5.376z m121.258666-94.336c5.376 0 8.106667 0 10.794667-2.688l24.234667-18.858666 29.653333 8.106666h5.376c8.106667 0 16.213333-5.418667 18.858667-13.525333 2.688-10.752-2.688-21.546667-13.482667-24.234667l-24.234667-8.106666v-26.922667a18.432 18.432 0 0 0-18.858666-18.858667 18.432 18.432 0 0 0-18.858667 18.858667v32.341333l-24.277333 18.858667c-8.106667 5.376-10.752 18.858667-2.688 26.922667 2.688 5.418667 8.106667 8.106667 13.482666 8.106666z m258.688 48.512l64.682667 21.546667h5.376c8.106667 0 16.213333-5.376 18.858667-13.482667 2.730667-10.752-2.688-21.546667-13.44-24.234666l-64.682667-21.546667c-10.794667-2.730667-21.546667 2.688-24.277333 13.44-2.688 10.794667 2.730667 21.589333 13.482666 24.277333z m258.688-99.712c-8.106667-8.106667-18.858667-8.106667-26.922666 0-8.106667 8.106667-8.106667 18.858667 0 26.922667C926.976 512 951.253333 563.2 951.253333 614.4c0 132.053333-148.224 247.893333-353.024 272.170667-10.794667 0-18.858667 10.794667-16.170666 21.546666 0 10.794667 8.106667 16.213333 18.858666 16.213334h2.688c223.658667-26.965333 388.053333-159.018667 388.053334-309.930667-2.688-61.994667-29.653333-121.258667-80.853334-172.458667zM512 910.848v-8.106667s0-2.688-2.688-2.688v-2.688l-45.824-59.306666c-5.376-8.106667-18.858667-10.794667-26.922667-2.688-8.106667 5.376-10.794667 18.858667-2.730666 26.965333l21.589333 26.922667c-8.106667 0-16.213333-2.688-24.277333-2.688-210.176-24.234667-358.4-140.117333-358.4-272.170667 0-48.512 18.858667-94.293333 56.618666-134.741333 5.376-8.106667 5.376-21.546667-2.730666-26.922667-8.106667-8.106667-18.858667-5.418667-26.922667 2.688C56.618667 503.893333 34.986667 557.824 34.986667 614.4c0 150.912 161.706667 282.965333 388.053333 309.888 10.752 0 21.546667 2.688 32.341333 2.688l-24.277333 32.341333a20.736 20.736 0 0 0 13.482667 32.341334c5.376 0 10.794667-2.688 16.170666-8.106667l45.824-59.264v-8.064c2.688-2.688 5.376-2.688 5.376-5.418667z" p-id="7377" fill="currentColor"></path></svg>
