<?xml version="1.0" standalone="no"?><!DOCTYPE svg PUBLIC "-//W3C//DTD SVG 1.1//EN" "http://www.w3.org/Graphics/SVG/1.1/DTD/svg11.dtd"><svg t="1591246945189" class="icon" viewBox="0 0 1024 1024" version="1.1" xmlns="http://www.w3.org/2000/svg" p-id="7787" xmlns:xlink="http://www.w3.org/1999/xlink" width="32" height="32"><defs><style type="text/css"></style></defs><path d="M780.8 488.3616l147.0608 84.9072a64 64 0 0 1 32 55.424v169.8128a64 64 0 0 1-32 55.4256L780.8 938.8384a64 64 0 0 1-64 0l-147.0608-84.9072a64 64 0 0 1-32-55.424V628.6928a64 64 0 0 1 32-55.4256L716.8 488.3616a64 64 0 0 1 64 0z m-473.6 0l147.0608 84.9072a64 64 0 0 1 32 55.424v169.8128a64 64 0 0 1-32 55.4256L307.2 938.8384a64 64 0 0 1-64 0l-147.0608-84.9072a64 64 0 0 1-32-55.424V628.6928a64 64 0 0 1 32-55.4256L243.2 488.3616a64 64 0 0 1 64 0z m433.6 41.5696l-147.0608 84.9072a16 16 0 0 0-8 13.856v169.8112a16 16 0 0 0 8 13.856L740.8 897.2688a16 16 0 0 0 16 0l147.0608-84.9072a16 16 0 0 0 8-13.856V628.6944a16 16 0 0 0-8-13.856L756.8 529.9312a16 16 0 0 0-16 0z m-473.6 0l-147.0608 84.9072a16 16 0 0 0-8 13.856v169.8112a16 16 0 0 0 8 13.856L267.2 897.2688a16 16 0 0 0 16 0l147.0608-84.9072a16 16 0 0 0 8-13.856V628.6944a16 16 0 0 0-8-13.856L283.2 529.9312a16 16 0 0 0-16 0z m276.8-452.768l147.0608 84.9056a64 64 0 0 1 32 55.424v169.8128a64 64 0 0 1-32 55.4256L544 527.6384a64 64 0 0 1-64 0l-147.0608-84.9072a64 64 0 0 1-32-55.424V217.4928a64 64 0 0 1 32-55.4256L480 77.1616a64 64 0 0 1 64 0z m-40 41.568l-147.0608 84.9072a16 16 0 0 0-8 13.856v169.8112a16 16 0 0 0 8 13.856L504 486.0688a16 16 0 0 0 16 0l147.0608-84.9072a16 16 0 0 0 8-13.856V217.4944a16 16 0 0 0-8-13.856L520 118.7312a16 16 0 0 0-16 0z" fill="currentColor" p-id="7788"></path></svg>
