<?xml version="1.0" standalone="no"?><!DOCTYPE svg PUBLIC "-//W3C//DTD SVG 1.1//EN" "http://www.w3.org/Graphics/SVG/1.1/DTD/svg11.dtd"><svg t="1581690400742" class="icon" viewBox="0 0 1024 1024" version="1.1" xmlns="http://www.w3.org/2000/svg" p-id="3271" xmlns:xlink="http://www.w3.org/1999/xlink" width="32" height="32"><defs><style type="text/css"></style></defs><path d="M184 184v208h208V184H184z m-40-72h288c17.673 0 32 14.327 32 32v288c0 17.673-14.327 32-32 32H144c-17.673 0-32-14.327-32-32V144c0-17.673 14.327-32 32-32z m506.44 175.293l86.267 86.267 84.853-84.853-86.267-86.267-84.853 84.853z m107.48-152.735L889.442 266.08c12.497 12.496 12.497 32.758 0 45.255L759.335 441.442c-12.497 12.497-32.759 12.497-45.255 0L582.558 309.92c-12.497-12.496-12.497-32.758 0-45.255l130.107-130.107c12.497-12.497 32.759-12.497 45.255 0zM184 632v208h208V632H184z m-40-72h288c17.673 0 32 14.327 32 32v288c0 17.673-14.327 32-32 32H144c-17.673 0-32-14.327-32-32V592c0-17.673 14.327-32 32-32z m488 72v208h208V632H632z m-40-72h288c17.673 0 32 14.327 32 32v288c0 17.673-14.327 32-32 32H592c-17.673 0-32-14.327-32-32V592c0-17.673 14.327-32 32-32z" fill="#ea9518" p-id="3272"></path></svg>
